<mxfile host="65bd71144e">
    <diagram id="34LgAEDYqkMx1i_gaxl2" name="Page-1">
        <mxGraphModel dx="1098" dy="515" grid="1" gridSize="10" guides="1" tooltips="1" connect="1" arrows="1" fold="1" page="1" pageScale="1" pageWidth="850" pageHeight="1100" math="0" shadow="0">
            <root>
                <mxCell id="0"/>
                <mxCell id="1" parent="0"/>
                <mxCell id="2" value="&lt;b&gt;App&lt;/b&gt;&lt;br&gt;state `filter` stores current selected genre, 'movies' stores list of movies&lt;br&gt;Callbacks: `setFilter` updates genre filter, `addMovie` adds new movie to list" style="rounded=1;whiteSpace=wrap;html=1;" vertex="1" parent="1">
                    <mxGeometry x="240" width="170" height="100" as="geometry"/>
                </mxCell>
                <mxCell id="3" value="&lt;b&gt;GenreFilter&lt;br&gt;&lt;/b&gt;props: `genres` list of available&lt;br&gt;'onFilter' callback to update the filter state in 'App'" style="rounded=1;whiteSpace=wrap;html=1;" vertex="1" parent="1">
                    <mxGeometry x="10" y="120" width="170" height="80" as="geometry"/>
                </mxCell>
                <mxCell id="4" value="&lt;b&gt;NavBar&lt;/b&gt;&lt;br&gt;links with home and Add Movie&lt;br&gt;no state of call backs" style="rounded=1;whiteSpace=wrap;html=1;" vertex="1" parent="1">
                    <mxGeometry x="210" y="120" width="170" height="80" as="geometry"/>
                </mxCell>
                <mxCell id="5" value="&lt;b&gt;MovieList&lt;br&gt;&lt;/b&gt;filter array from App" style="rounded=1;whiteSpace=wrap;html=1;" vertex="1" parent="1">
                    <mxGeometry x="400" y="120" width="170" height="80" as="geometry"/>
                </mxCell>
                <mxCell id="6" value="&lt;b&gt;MovieDetail&lt;br&gt;&lt;/b&gt;state: `movie` stores details of selected movie" style="rounded=1;whiteSpace=wrap;html=1;" vertex="1" parent="1">
                    <mxGeometry x="590" y="120" width="170" height="80" as="geometry"/>
                </mxCell>
                <mxCell id="7" value="&lt;b&gt;AddMoviesForm&lt;br&gt;&lt;/b&gt;state: `title` category` description` stores input values, uses 'addMovie' callback&amp;nbsp;" style="rounded=1;whiteSpace=wrap;html=1;" vertex="1" parent="1">
                    <mxGeometry x="790" y="120" width="170" height="80" as="geometry"/>
                </mxCell>
                <mxCell id="8" value="" style="endArrow=classic;html=1;entryX=1;entryY=0;entryDx=0;entryDy=0;" edge="1" parent="1" target="3">
                    <mxGeometry width="50" height="50" relative="1" as="geometry">
                        <mxPoint x="240" y="80" as="sourcePoint"/>
                        <mxPoint x="190" y="130" as="targetPoint"/>
                    </mxGeometry>
                </mxCell>
                <mxCell id="9" value="" style="endArrow=classic;html=1;entryX=0;entryY=0;entryDx=0;entryDy=0;exitX=1;exitY=1;exitDx=0;exitDy=0;" edge="1" parent="1" source="2">
                    <mxGeometry width="50" height="50" relative="1" as="geometry">
                        <mxPoint x="410" y="90" as="sourcePoint"/>
                        <mxPoint x="440" y="120" as="targetPoint"/>
                    </mxGeometry>
                </mxCell>
                <mxCell id="10" value="" style="endArrow=classic;html=1;entryX=0.649;entryY=-0.021;entryDx=0;entryDy=0;exitX=1;exitY=1;exitDx=0;exitDy=0;entryPerimeter=0;" edge="1" parent="1" target="4">
                    <mxGeometry width="50" height="50" relative="1" as="geometry">
                        <mxPoint x="320" y="90" as="sourcePoint"/>
                        <mxPoint x="350" y="120" as="targetPoint"/>
                    </mxGeometry>
                </mxCell>
                <mxCell id="11" value="" style="endArrow=classic;html=1;entryX=0;entryY=0;entryDx=0;entryDy=0;exitX=1;exitY=0.613;exitDx=0;exitDy=0;exitPerimeter=0;" edge="1" parent="1" source="2">
                    <mxGeometry width="50" height="50" relative="1" as="geometry">
                        <mxPoint x="560" y="90" as="sourcePoint"/>
                        <mxPoint x="590" y="120" as="targetPoint"/>
                    </mxGeometry>
                </mxCell>
                <mxCell id="12" value="" style="endArrow=classic;html=1;exitX=1;exitY=0.613;exitDx=0;exitDy=0;exitPerimeter=0;entryX=0;entryY=0;entryDx=0;entryDy=0;" edge="1" parent="1" target="7">
                    <mxGeometry width="50" height="50" relative="1" as="geometry">
                        <mxPoint x="410" y="29.039999999999964" as="sourcePoint"/>
                        <mxPoint x="780" y="120" as="targetPoint"/>
                    </mxGeometry>
                </mxCell>
                <mxCell id="13" value="&lt;b&gt;Delete&lt;/b&gt;&lt;br&gt;props: `onDelete`" style="rounded=1;whiteSpace=wrap;html=1;" vertex="1" parent="1">
                    <mxGeometry x="590" y="240" width="170" height="80" as="geometry"/>
                </mxCell>
                <mxCell id="14" value="" style="endArrow=classic;html=1;exitX=1;exitY=1;exitDx=0;exitDy=0;" edge="1" parent="1">
                    <mxGeometry width="50" height="50" relative="1" as="geometry">
                        <mxPoint x="670" y="200" as="sourcePoint"/>
                        <mxPoint x="670" y="240" as="targetPoint"/>
                    </mxGeometry>
                </mxCell>
                <mxCell id="15" value="&lt;b&gt;Favorite&lt;br&gt;&lt;/b&gt;State: `isFavorited` tracks if favorited&lt;br&gt;props: movieId, userId" style="rounded=1;whiteSpace=wrap;html=1;" vertex="1" parent="1">
                    <mxGeometry x="390" y="240" width="170" height="80" as="geometry"/>
                </mxCell>
                <mxCell id="16" value="" style="endArrow=classic;html=1;entryX=1;entryY=0;entryDx=0;entryDy=0;exitX=1;exitY=1;exitDx=0;exitDy=0;" edge="1" parent="1" target="15">
                    <mxGeometry width="50" height="50" relative="1" as="geometry">
                        <mxPoint x="590" y="200" as="sourcePoint"/>
                        <mxPoint x="620" y="230" as="targetPoint"/>
                    </mxGeometry>
                </mxCell>
                <mxCell id="17" value="&lt;ol&gt;&lt;li&gt;&amp;nbsp;npx create-react-app&lt;/li&gt;&lt;li&gt;json server&lt;/li&gt;&lt;li&gt;NavBar&lt;/li&gt;&lt;li&gt;GenreFilter&amp;nbsp;&lt;/li&gt;&lt;li&gt;App&lt;/li&gt;&lt;li&gt;MovieList&lt;/li&gt;&lt;li&gt;MovieDetail&lt;/li&gt;&lt;li&gt;AddMovieForm&lt;/li&gt;&lt;li&gt;Favorite&lt;/li&gt;&lt;li&gt;Delete&lt;/li&gt;&lt;/ol&gt;" style="rounded=1;whiteSpace=wrap;html=1;align=left;" vertex="1" parent="1">
                    <mxGeometry x="10" y="210" width="180" height="290" as="geometry"/>
                </mxCell>
                <mxCell id="18" value="&lt;b&gt;&lt;font style=&quot;font-size: 24px;&quot;&gt;Stretch Goals:&lt;/font&gt;&lt;/b&gt;" style="text;html=1;align=center;verticalAlign=middle;resizable=0;points=[];autosize=1;strokeColor=none;fillColor=none;" vertex="1" parent="1">
                    <mxGeometry x="190" y="260" width="190" height="40" as="geometry"/>
                </mxCell>
            </root>
        </mxGraphModel>
    </diagram>
</mxfile>